<?xml version="1.0" encoding="utf-8"?>
<!-- Generator: Adobe Illustrator 15.1.0, SVG Export Plug-In . SVG Version: 6.00 Build 0)  -->
<!DOCTYPE svg PUBLIC "-//W3C//DTD SVG 1.1//EN" "http://www.w3.org/Graphics/SVG/1.1/DTD/svg11.dtd">
<svg version="1.1" id="Layer_1" xmlns="http://www.w3.org/2000/svg" xmlns:xlink="http://www.w3.org/1999/xlink" x="0px" y="0px"
	 width="1000px" height="676px" viewBox="0 0 1000 676" enable-background="new 0 0 1000 676" xml:space="preserve">
<g>
	<path fill="#020202" d="M766.271,256.201c-24.513,0-47.776,5.18-68.909,14.389l-8.961-29.401l2.326-0.748
		c0.597-0.207,0.928-0.844,0.748-1.44l-0.581-1.786c-0.181-0.595-0.846-0.928-1.44-0.734l-2.243,0.72l-9.112-29.72
		c-4.029-13.226-8.114-26.465-12.215-39.662l1.481-0.485c0.608-0.193,0.929-0.845,0.775-1.44l-0.582-1.786
		c-0.193-0.582-0.857-0.928-1.439-0.734l-1.454,0.457l-0.651,0.208l-6.563-18.543h48.47c1.15,0,2.548,0.042,4.101,0.167l0.525-6.911
		l-0.499,6.911c10.124,0.733,43.167,5.428,43.167,34.94c0,29.885-31.229,35.175-32.559,35.383l2.091,13.683
		c15.317-2.313,44.302-15.566,44.302-49.066c0-32.933-28.93-46.78-55.99-48.748l0,0c-1.967-0.152-3.711-0.208-5.15-0.208h-53.04v0.9
		l-0.208-0.582l-15.205,4.819l11.342,32.102l-1.314,0.415c-0.597,0.194-0.929,0.859-0.748,1.44l0.567,1.772
		c0.206,0.609,0.857,0.942,1.439,0.762l1.439-0.471c0.639,1.939,1.261,3.822,1.896,5.747H372.778l-2.298-7.838l-1.523-5.221
		l-0.79,0.235l-14.624-50.63c-0.402-1.551-1.344-4.695-8.946-8.226l1.662-0.083c2.922-0.152,6.897-1.8,9.057-3.753l10.415-9.39
		c3.102,0.055,5.4,0.222,5.982,0.554c2.022,1.149,14.362,1.44,18.945,1.44c4.612,0,11.786,0.291,12.935,0.291
		c1.149,0,4.584-2.866-0.857-6.315c-5.471-3.448-13.502-10.345-37.322-10.345c-23.819,0-67.18,0-70.642,0
		c-3.449,0-8.213-0.568-12.048-1.717c-4.487-1.344-20.676-2.285-23.251-1.149c-2.604,1.149-2.119,3.919,2.298,8.06
		c2.964,2.756,8.17,7.713,11.092,9.168c2.271,1.149,10.332,4.376,19,6.467l4.584,5.083c1.953,2.133,5.65,3.74,8.627,3.74
		c0.139,0,0.292,0,0.402-0.014l14.444-0.748c-0.111,0.678-0.167,1.371-0.167,2.091c0,6.094,3.158,11.231,11.619,11.425
		c2.853,0.056,7.119-0.817,10.193-2.188c0.042,0.014,0.083,0.042,0.138,0.055l14.347,49.731l-1.427,0.415l1.523,5.235l5.069,17.214
		c-0.069,0.138-0.138,0.249-0.208,0.346l-4.113,7.464l-8.24,14.887l-16.438,29.817L315.57,274.37
		c-0.333,0.596-0.679,1.205-1.011,1.8c-24.042-12.699-51.406-19.97-80.488-19.97c-95.348,0-172.637,77.303-172.637,172.65
		c0,95.361,77.289,172.638,172.637,172.638c70.115,0,130.357-41.864,157.375-101.898l38.486,4.709
		c5.872,2.327,12.229,3.711,18.932,3.711c28.417,0,51.46-23.043,51.46-51.475c0-11.342-3.781-21.729-9.998-30.231l179.56-194.269
		l3.241,9.667l-2.271,0.72c-0.609,0.208-0.942,0.859-0.748,1.455l0.582,1.787c0.166,0.595,0.844,0.914,1.439,0.733l2.313-0.748
		l10.373,30.993c-54.272,29.097-91.193,86.332-91.193,152.21c0,95.361,77.289,172.638,172.649,172.638
		c95.362,0,172.638-77.275,172.638-172.638C938.909,333.504,861.635,256.201,766.271,256.201z M337.173,103.783
		c-1.745-2.895-4.598-4.82-7.852-4.82c-3.545,0-6.633,2.285-8.282,5.664l-15.746,0.804c-2.008,0.11-4.944-1.107-6.301-2.604
		l-1.44-1.579c2.826,0.457,5.581,0.734,8.143,0.693c12.533-0.194,17.519-6.315,22.103-7.188c4.598-0.859,13.502-0.859,13.502-0.859
		c3.254,0,12.034-0.291,19.347-0.305l-7.631,6.855c-1.565,1.44-4.806,2.755-6.938,2.867L337.173,103.783z M323.38,278.69
		l16.383-29.857l16.549-29.761l8.268-14.873l0.138-0.222l60.562,205.583l-19.527,1.137c-5.789-55.396-37.849-102.839-83.425-130.038
		C322.66,279.993,323.02,279.342,323.38,278.69z M415.599,484.301c0,0-5.499-5.705-8.337-14.333
		c-0.679-2.104-1.107-4.153-1.413-6.064l22.906,3.628l3.794,0.596c-0.125,0.36-0.111,0.734-0.277,1.08l-6.344,13.392
		C423.796,487.195,419.115,487.957,415.599,484.301z M249.525,417.178l25.343-48.554l16.037-30.065l16.175-29.968
		c2.009-3.712,4.03-7.395,6.052-11.106c39.939,24.097,68.038,65.727,73.412,114.319l-135.315,7.865
		C250.786,418.715,250.259,417.801,249.525,417.178z M386.849,415.267c0.387,4.486,0.692,9.001,0.692,13.585
		c0,4.902-0.291,9.722-0.734,14.5L252.433,423.12c0,0,0-0.015-0.013-0.028L386.849,415.267z M431.676,444.694l-14.706-1.91
		c-5.014-0.638-7.202-4.849-4.819-9.335c0,0,3.739-6.98,11.064-12.325c1.551-1.122,3.117-1.994,4.626-2.784l7.671,26.021
		C434.293,444.723,432.992,444.86,431.676,444.694z M445.165,424.296l-2.784-9.46c2.549,1.026,3.961,3.574,3.283,6.994
		L445.165,424.296z M448.849,449.514c4.558,0,8.269,3.712,8.269,8.268c0,4.557-3.711,8.269-8.269,8.269
		c-4.569,0-8.28-3.712-8.28-8.269C440.568,453.226,444.278,449.514,448.849,449.514z M406.638,427.218
		c-0.042-4.39-0.291-8.753-0.665-13.06l15.192-0.886C415.446,416.941,410.501,421.664,406.638,427.218z M455.605,438.477
		c-0.29-0.638-0.65-1.246-0.789-1.967l-2.742-14.568c-0.928-4.973,2.396-8.351,7.396-7.465c0,0,6.495,1.303,13.184,5.539
		L455.605,438.477z M234.07,582.321c-84.739,0-153.457-68.703-153.457-153.471c0-84.754,68.717-153.471,153.457-153.471
		c25.675,0,49.813,6.384,71.071,17.521c-2.091,3.711-4.168,7.436-6.273,11.134l-16.84,29.607l-16.992,29.512
		c-9.002,15.47-17.989,30.911-27.144,46.296l-2.728-0.015c-0.305-0.026-0.624-0.042-0.942-0.042
		c-10.469,0-18.945,8.477-18.945,18.945c0,9.334,6.758,17.063,15.649,18.654l7.257-0.124c4.778-0.998,8.877-3.81,11.577-7.688
		l134.484,21.302c-2.452,11.688-6.343,22.809-11.273,33.347l-140.3-17.172c1.039-1.481,1.8-3.213,1.8-5.181
		c0-5.055-4.1-9.167-9.168-9.167c-5.055,0-9.167,4.112-9.167,9.167s4.113,9.167,9.167,9.167c1.413,0,2.687-0.373,3.877-0.928
		l142.212,17.408C346.23,547.576,294.27,582.321,234.07,582.321z M393.039,496.295c3.073-7.229,5.483-14.79,7.561-22.49
		c3.835,10.732,11.011,19.83,20.441,25.91L393.039,496.295z M464.996,496.737c0,0-7.132,3.477-16.217,3.477
		c-9.071,0-16.203-3.477-16.203-3.477c-4.558-2.216-5.234-6.841-1.51-10.275l11.246-10.346c0.29-0.276,0.691-0.388,1.011-0.609
		c1.704,0.527,3.489,0.874,5.374,0.874c1.979,0,3.78-0.555,5.566-1.122c0.514,0.318,1.081,0.539,1.523,0.955l10.774,10.164
		C470.271,489.854,469.552,494.521,464.996,496.737z M492.098,453.599c0,0,1.107,7.854-1.689,16.494
		c-2.825,8.628-8.323,14.333-8.323,14.333c-3.518,3.67-8.128,2.866-10.248-1.729l-6.355-13.904c-0.348-0.762-0.43-1.579-0.569-2.383
		c1.371-2.534,2.313-5.304,2.369-8.377c0.706-0.79,1.467-1.51,2.438-2.037l13.004-7.118
		C487.181,446.467,491.419,448.6,492.098,453.599z M485.686,433.561c2.41,4.459,0.223,8.601-4.818,9.195l-6.453,0.748l10.441-11.301
		C485.381,433.02,485.686,433.561,485.686,433.561z M478.056,414.2c-8.309-5.734-18.336-9.142-29.179-9.142
		c-3.117,0-6.122,0.389-9.099,0.914l-61.903-210.208h279.95c1.828,5.484,3.656,10.955,5.483,16.439l0.388,1.163L478.056,414.2z
		 M766.271,582.321c-84.767,0-153.483-68.703-153.483-153.471c0-57.401,31.561-107.354,78.23-133.68l9.431,28.099l6.231,18.5
		l1.553,4.628l0.441,1.313l0.401,1.137l0.914,2.383c1.273,3.144,2.576,6.218,3.961,9.251c5.637,12.145,12.242,23.665,19.749,34.62
		c3.737,5.472,7.686,10.815,11.95,15.928c2.146,2.562,4.362,5.054,6.759,7.478c2.326,2.423,4.847,4.766,7.672,6.897
		c1.481,1.371,3.795,1.259,5.166-0.236c1.356-1.48,1.246-3.809-0.249-5.166c-0.139-0.124-0.318-0.068-0.471-0.166l0.04-0.041
		c-4.458-3.961-8.517-8.933-12.271-13.987c-3.767-5.109-7.34-10.413-10.648-15.87c-6.647-10.912-12.657-22.24-17.519-33.915
		c-1.219-2.907-2.384-5.872-3.394-8.835l-0.763-2.188l-0.388-1.148l-0.291-1.013l-1.427-4.681l-5.677-18.667l-9.211-30.357
		c19.306-8.752,40.688-13.751,63.246-13.751c84.781,0,153.472,68.717,153.472,153.472
		C919.743,513.618,851.054,582.321,766.271,582.321z"/>
	<circle fill="#020202" cx="241.673" cy="456.604" r="9.168"/>
</g>
</svg>
